<?xml version="1.0" standalone="no"?>
<!DOCTYPE svg PUBLIC "-//W3C//DTD SVG 20010904//EN"
 "http://www.w3.org/TR/2001/REC-SVG-20010904/DTD/svg10.dtd">
<svg version="1.0" xmlns="http://www.w3.org/2000/svg"
 width="520.000000pt" height="520.000000pt" viewBox="0 0 520.000000 520.000000"
 preserveAspectRatio="xMidYMid meet">
<metadata>
Created by potrace 1.14, written by Peter Selinger 2001-2017
</metadata>
<g transform="translate(0.000000,520.000000) scale(0.100000,-0.100000)"
fill="#000000" stroke="none">
<path d="M1906 3530 c-120 -22 -254 -84 -375 -175 -40 -31 -75 -54 -78 -51 -2
2 -11 48 -20 103 -8 54 -18 101 -22 105 -4 4 -489 -16 -518 -21 -2 -1 -3 -45
-3 -99 l0 -98 113 -29 112 -30 3 -952 2 -952 -87 -26 c-49 -14 -99 -30 -113
-34 -24 -7 -25 -11 -28 -109 l-3 -102 438 2 438 3 0 100 0 99 -130 31 -130 30
-3 239 -2 238 22 -5 c152 -36 420 -35 548 3 305 88 503 335 550 687 18 133 8
403 -19 511 -84 332 -283 521 -565 536 -44 3 -103 1 -130 -4z m68 -300 c112
-42 203 -179 240 -364 22 -103 22 -317 1 -422 -20 -102 -83 -230 -140 -288
-108 -107 -294 -142 -517 -95 l-58 12 0 512 0 512 58 40 c67 48 132 81 187 99
63 20 166 17 229 -6z"/>
<path d="M3868 3530 c-119 -20 -243 -85 -370 -194 l-77 -65 -5 27 c-3 15 -13
70 -21 122 -9 52 -17 96 -18 97 -2 1 -513 -24 -525 -27 -1 0 -1 -44 0 -97 l3
-98 110 -30 110 -31 0 -588 0 -589 -112 -30 -113 -30 0 -98 0 -99 445 0 445 0
0 100 c0 55 -2 100 -3 100 -4 0 -214 46 -254 55 l-23 5 0 485 0 484 31 36 c45
50 172 132 234 150 30 9 79 15 112 13 l58 -3 12 -100 c7 -55 15 -115 18 -132
l6 -33 109 0 c61 0 110 1 111 3 2 8 27 542 25 544 -1 1 -42 9 -90 18 -95 16
-144 17 -218 5z"/>
<path d="M4428 2206 c-119 -32 -184 -141 -157 -265 22 -102 101 -161 217 -161
89 0 144 27 190 94 28 43 32 56 32 118 0 77 -19 125 -67 170 -50 47 -137 65
-215 44z"/>
</g>
</svg>
