<?xml version="1.0" standalone="no"?>
<!DOCTYPE svg PUBLIC "-//W3C//DTD SVG 20010904//EN"
 "http://www.w3.org/TR/2001/REC-SVG-20010904/DTD/svg10.dtd">
<svg version="1.0" xmlns="http://www.w3.org/2000/svg"
 width="520.000000pt" height="520.000000pt" viewBox="0 0 520.000000 520.000000"
 preserveAspectRatio="xMidYMid meet">
<metadata>
Created by potrace 1.11, written by Peter Selinger 2001-2013
</metadata>
<g transform="translate(0.000000,520.000000) scale(0.100000,-0.100000)"
fill="#000000" stroke="none">
<path d="M1975 3405 c-74 -21 -201 -87 -278 -145 -37 -28 -68 -49 -68 -48 -1
2 -9 46 -18 98 -9 52 -20 95 -26 95 -165 -5 -408 -18 -433 -22 l-33 -5 3 -86
3 -86 50 -14 c28 -8 74 -20 103 -29 l52 -14 -2 -857 -3 -857 -85 -25 c-131
-39 -120 -27 -120 -125 l0 -85 395 0 395 0 0 88 0 89 -117 29 -118 29 -3 214
-2 213 22 -6 c116 -31 360 -32 473 -2 231 62 413 237 483 466 33 107 45 235
39 397 -6 178 -27 268 -93 401 -72 147 -191 251 -329 287 -72 18 -221 18 -290
0z m105 -251 c106 -32 201 -163 234 -326 20 -97 21 -299 1 -391 -16 -75 -52
-162 -91 -219 -34 -48 -115 -103 -183 -122 -66 -19 -221 -20 -306 -3 l-60 13
-3 457 -2 456 52 41 c63 51 112 76 181 95 69 18 112 18 177 -1z"/>
<path d="M3740 3401 c-95 -30 -192 -90 -287 -175 l-52 -47 -6 33 c-3 18 -12
68 -19 111 -7 43 -15 79 -17 80 -3 3 -459 -19 -466 -22 -2 -1 -3 -41 -3 -89
l0 -88 71 -18 c38 -10 86 -22 105 -27 l34 -10 -2 -527 -3 -527 -102 -29 -103
-29 0 -88 0 -89 400 0 400 0 0 89 0 89 -67 15 c-38 8 -94 21 -125 28 l-58 12
0 443 0 442 46 41 c104 91 190 131 286 131 54 0 50 7 68 -125 18 -138 6 -125
119 -125 l98 0 6 108 c4 59 9 170 13 248 l7 141 -58 11 c-86 18 -220 14 -285
-7z"/>
</g>
</svg>
